<svg xmlns="http://www.w3.org/2000/svg" width="216" height="214"><defs><linearGradient id="a" x1="0%" x2="0%" y1="100%" y2="0%"><stop offset="0%" stop-color="#AFDCB6"/><stop offset="57%" stop-color="#5EC3BA"/><stop offset="100%" stop-color="#30B7B5"/></linearGradient></defs><path fill-rule="evenodd" fill="#30B7B5" d="M215.993 213.273L.483.016H79.99l136.005 134.367v78.89z"/><path fill="url(#a)" d="M215.993 213.273L.483.016H79.99l136.005 134.367v78.89z"/><path fill-rule="evenodd" fill="#FFF" d="M187.412 135.787l-2.06 2.06-6.066 4.264c-.166.13-.478.11-.644-.054l-.772-.772c-.165-.166-.184-.478-.055-.644l4.228-6.03 2.096-2.096c.183-.184.514-.184.698 0l2.574 2.574c.184.184.184.515 0 .7zm-7.975-3.968c-.184.183-.497.202-.7 0l-5.092-5.093-2.28 2.28 4.193 4.19c.183.185.183.516 0 .7l-2.004 2.004c-.203.203-.515.185-.7 0l-4.19-4.19-2.483 2.48 5.094 5.094c.202.202.184.515 0 .7l-2.004 2.003c-.184.183-.497.202-.7 0l-7.61-7.612c-.203-.202-.184-.515 0-.7l12.17-12.17c.185-.184.497-.202.7 0l7.61 7.612c.203.202.185.515 0 .698l-2.003 2.004zm-17.287-6.11c-2.795 2.795-7.465 2.758-10.37-.146-2.886-2.887-2.905-7.54-.11-10.333l7.593-7.592c.184-.184.515-.184.7 0l2.26 2.26c.202.203.184.516 0 .7l-7.446 7.446c-1.287 1.287-1.36 3.272-.055 4.578 1.324 1.324 3.328 1.268 4.615-.02l7.446-7.445c.184-.184.496-.202.698 0l2.263 2.262c.184.183.184.514 0 .697l-7.593 7.594zm-19.152-14.702l4.376 4.376c.202.202.184.515 0 .7l-2.004 2.003c-.184.184-.497.202-.7 0l-6.912-6.913c-.202-.202-.184-.515 0-.7l12.17-12.17c.185-.184.498-.202.7 0l2.188 2.188c.184.184.184.515 0 .7l-9.818 9.816zm-7.17-2.72c-.128.35-.514.44-.79.165l-2.04-2.04c-.332-.33-.37-.59-.185-1.103l.79-2.115-5-5-2.133.808c-.312.13-.735.147-1.103-.22l-2.022-2.023c-.276-.275-.184-.662.165-.79l18.128-6.62c.166-.054.386-.017.515.11l.184.185c.13.13.165.35.11.515l-6.62 18.128zm.79-13.146l-4.41 1.655L135 99.592l1.637-4.43-.018-.02zm-.127-10.02l-18.145 6.6c-.166.057-.368.038-.515-.11l-.184-.183c-.147-.148-.166-.35-.11-.516l6.637-18.11c.128-.35.515-.44.79-.165l2.446 2.445c.146.147.164.386.11.514l-3.678 9.744.11.11 9.744-3.677c.13-.055.368-.037.515.11l2.447 2.445c.275.276.183.662-.166.79zm-19.542-15.79c-.184.182-.496.2-.7 0l-2.628-2.63-9.818 9.817c-.183.183-.514.183-.698 0l-2.206-2.207c-.184-.184-.184-.515 0-.7l9.817-9.816-2.63-2.63c-.2-.202-.183-.514 0-.698l2.005-2.005c.184-.184.497-.202.7 0l8.162 8.163c.202.202.184.515 0 .7l-2.004 2.003zm-10.13-11.27l-2.353.477c-.33.073-.827-.093-.864-.387-.073-.258-.404-2.61-1.525-3.732-.662-.66-1.6-.716-2.096-.22-.68.68-.645 1.747.22 3.787.864 2.004 2.022 5.406-.48 7.906-1.892 1.894-5.44 2.17-8.143-.533-2.39-2.39-2.72-4.707-2.72-5.552 0-.368.017-.497.422-.607l2.39-.66c.385-.093.697.293.734.514.037.11.386 2.408 1.6 3.622.735.735 1.728.81 2.37.165.774-.77.718-2.003-.035-3.75-.957-2.206-1.71-5.423.495-7.63 1.82-1.82 5.074-2.242 7.906.59 1.913 1.91 2.41 4.356 2.556 5.312.092.35-.275.644-.478.7zM95.74 48.123c-.182.184-.495.202-.697 0L89.95 43.03l-2.28 2.28 4.192 4.193c.184.184.184.515 0 .7l-2.004 2.003c-.202.202-.515.183-.7 0l-4.19-4.192-2.482 2.482 5.092 5.093c.203.2.184.513 0 .697l-2.004 2.004c-.184.185-.496.203-.698 0l-7.612-7.61c-.202-.203-.184-.515 0-.7l12.17-12.17c.185-.184.498-.202.7 0l7.61 7.61c.204.204.185.516 0 .7l-2.003 2.004zM78.176 38.5c.57 1.38 1.158 3.77-.534 5.46-2.058 2.06-5.367 1.728-7.555-.46l-4.56-4.56c-.202-.2-.183-.514 0-.698l12.172-12.17c.183-.185.496-.203.698 0l4.284 4.283c2.17 2.17 2.463 5.442.532 7.373-1.415 1.415-3.714 1.176-5.037.772zm-3.383-.81l-1.49-1.488-2.63 2.63 1.674 1.672c.717.717 1.913.735 2.666-.02.736-.734.497-2.076-.22-2.793zm4.91-5.018l-1.435-1.435-2.574 2.574 1.434 1.435c.698.7 1.875.7 2.61-.036.736-.737.662-1.84-.036-2.538zm96.844 110.67c.956.957.956 2.575 0 3.53-.937.94-2.537.92-3.493-.036-.938-.937-.938-2.52 0-3.456.956-.956 2.556-.975 3.493-.037z"/></svg>